<?xml version="1.0" encoding="iso-8859-1"?>
<!-- Generator: Adobe Illustrator 16.0.0, SVG Export Plug-In . SVG Version: 6.00 Build 0)  -->
<!DOCTYPE svg PUBLIC "-//W3C//DTD SVG 1.1//EN" "http://www.w3.org/Graphics/SVG/1.1/DTD/svg11.dtd">
<svg xmlns="http://www.w3.org/2000/svg" xmlns:xlink="http://www.w3.org/1999/xlink" version="1.1" id="Capa_1" x="0px" y="0px" width="512px" height="512px" viewBox="0 0 594.033 594.034" style="enable-background:new 0 0 594.033 594.034;" xml:space="preserve">
<g>
	<g>
		<path d="M522.365,345.763c-7.76,7.296-32.355,19.181-51.744,27.948c0.045,0.036,0.082,0.063,0.127,0.1l-9.785,4.198    c-7.741,3.38-13.511,5.814-15.265,6.542l-201.734,86.47c-15.955,6.806-23.719,1.027-25.868-1.072l-0.681-0.708l-0.009-0.019    l-82.877-85.507c0,0-6.428-6.006-1.713-17.5l99.972-242.175c0.418-0.977,1.291-2.708,2.326-4.607l17.69-34.854    c0.019-0.168,0.082-0.336,0.1-0.504c5.833-10.744,16.2-26.395,28.384-29.184c1.518-0.213,3.044-0.436,4.625-0.436    c18.472,0,33.436,14.96,33.436,33.427c0,3.257-0.509,6.365-1.381,9.332h0.019c0,0-7.097,21.643,13.847,15.937    c0.636-0.177,1.09-0.177,1.663-0.259c4.934-1.526,10.049-2.604,15.491-2.604c29.329,0,53.08,23.76,53.08,53.075    c0,3.853-0.51,7.555-1.309,11.158l0.091,0.018c0,0-4.525,22.77,18.026,19.716c0.091-0.009,0.127,0.019,0.209,0.009    c3.616-0.781,7.351-1.268,11.229-1.268c29.884,0,54.106,24.228,54.106,54.102c0,6.105-1.354,11.789-3.216,17.24    c-0.027,0.336,0.146,0.477,0.055,0.868C478.38,278,492.872,277.36,492.872,277.36s-0.063,0.25-0.082,0.295    c1.473-0.168,2.862-0.549,4.389-0.549c21.516,0,38.951,17.445,38.951,38.965c0,11.921-5.379,22.542-13.811,29.665    C522.319,345.736,522.338,345.763,522.365,345.763L522.365,345.763z M584.04,317.77c0-33.023-22.733-60.508-53.37-68.249    c-0.31-0.141-0.473-0.286-0.836-0.418c-14.774-5.333-14.047-17.481-14.047-17.481c0-37.256-28.93-67.444-65.491-70.143    c-0.382-0.123-0.563-0.327-1.108-0.391c-10.049-1.304-9.304-11.53-9.304-11.53h-0.118c0.063-1.136,0.209-2.249,0.209-3.412    c0-37.039-28.612-67.082-64.892-70.08c-0.8-0.205-1.509-0.436-2.672-0.514c-14.482-0.872-13.446-11.793-13.446-11.793h-0.354    C355.094,28.021,325.311,0,288.649,0c-29.766,0-55.106,18.439-65.528,44.479c-0.763,1.518-1.454,2.976-1.844,3.88L87.896,371.486    c-6.296,15.318,2.299,23.351,2.299,23.351L200.761,508.9l0.032,0.037l0.899,0.944c2.848,2.817,13.211,10.54,34.503,1.427    l212.846-91.231l87.888-35.89c0.936-0.317,1.79-0.744,2.681-1.099l4.561-1.854l-0.199-0.191    C567.595,369.632,584.04,345.763,584.04,317.77L584.04,317.77z" fill="#D80027"/>
		<path d="M126.938,543.59c-9.018,11.275-23.074,18.254-38.583,17.663c-25.977-1.009-46.225-22.86-45.239-48.846    c0.504-12.902,6.215-24.359,14.969-32.546c2.494-1.881,8.227-4.725,15.137,2.062c0.014,0.019,0.032,0.027,0.032,0.046    l51.926,51.008C125.189,532.978,130.386,537.957,126.938,543.59L126.938,543.59z M69.002,438.966    c-0.027-0.036-0.068-0.046-0.095-0.082c-13.506-13.283-24.718-7.705-29.584-4.034c-17.113,16.01-28.293,38.361-29.261,63.62    c-1.935,50.808,37.607,93.557,88.397,95.492c30.337,1.182,57.786-12.484,75.417-34.508c6.782-11.013-3.407-20.771-3.407-20.771    L69.002,438.966L69.002,438.966z" fill="#D80027"/>
	</g>
</g>
<g>
</g>
<g>
</g>
<g>
</g>
<g>
</g>
<g>
</g>
<g>
</g>
<g>
</g>
<g>
</g>
<g>
</g>
<g>
</g>
<g>
</g>
<g>
</g>
<g>
</g>
<g>
</g>
<g>
</g>
</svg>
